<svg xmlns="http://www.w3.org/2000/svg" viewBox="0 0 65 65"><defs><style>.cls-1{fill:none;}.cls-2{fill:#40220f;}</style></defs><title>資產 4</title><g id="圖層_2" data-name="圖層 2"><g id="圖層_4" data-name="圖層 4"><rect class="cls-1" width="65" height="65"/><rect class="cls-2" x="13.97" y="8.08" width="36.85" height="4.25" rx="2.13"/><rect class="cls-2" x="13.97" y="21.38" width="36.85" height="4.25" rx="2.13"/><rect class="cls-2" x="13.97" y="34.68" width="36.85" height="4.25" rx="2.13"/><path class="cls-2" d="M18.06,53.42l.16.39a3.52,3.52,0,0,1,.16-.39,3,3,0,0,1,.17-.36l3.63-6.29a.38.38,0,0,1,.2-.2,1.14,1.14,0,0,1,.3,0h1.05V56.8H22.47V49.31c0-.11,0-.22,0-.35l0-.39L18.84,55a.57.57,0,0,1-.51.32h-.2a.57.57,0,0,1-.52-.32l-3.75-6.43a6.4,6.4,0,0,1,.05.73V56.8H12.66V46.53h1a1.08,1.08,0,0,1,.3,0,.37.37,0,0,1,.2.21l3.68,6.28Z"/><path class="cls-2" d="M32.16,46.53v1.16H27.59v3.37h3.68v1.11H27.59v3.47h4.58V56.8h-6V46.53Z"/><path class="cls-2" d="M35,46.58a.53.53,0,0,1,.21.2l5.57,7.68c0-.13,0-.25,0-.38s0-.23,0-.34V46.53H42V56.8H41.3a.58.58,0,0,1-.28-.06.55.55,0,0,1-.22-.19l-5.58-7.66c0,.12,0,.24,0,.35s0,.21,0,.31V56.8H34V46.53h.74A.7.7,0,0,1,35,46.58Z"/><path class="cls-2" d="M48.3,55.67a2.78,2.78,0,0,0,1.11-.21,2.16,2.16,0,0,0,.82-.6,2.68,2.68,0,0,0,.52-.92,3.94,3.94,0,0,0,.17-1.17V46.53h1.42v6.24a4.69,4.69,0,0,1-.28,1.65,3.73,3.73,0,0,1-.8,1.31A3.59,3.59,0,0,1,50,56.6a4.6,4.6,0,0,1-3.37,0,3.68,3.68,0,0,1-1.27-.87,3.73,3.73,0,0,1-.8-1.31,4.69,4.69,0,0,1-.28-1.65V46.53h1.42v6.23a4,4,0,0,0,.17,1.18,2.68,2.68,0,0,0,.52.92,2.16,2.16,0,0,0,.82.6A2.73,2.73,0,0,0,48.3,55.67Z"/></g></g></svg>